<svg id="Layer_1" data-name="Layer 1" xmlns="http://www.w3.org/2000/svg" viewBox="0 0 292.96 37.14"><defs><style>.cls-1{font-size:11.08px;fill:#231f20;stroke:#fff;stroke-width:0.29px;font-family:ArialMT, Arial;}.cls-1,.cls-10{stroke-miterlimit:10;}.cls-2{letter-spacing:-0.02em;}.cls-3{letter-spacing:-0.08em;}.cls-4{letter-spacing:-0.07em;}.cls-5{letter-spacing:0.02em;}.cls-6{letter-spacing:-0.01em;}.cls-7,.cls-9{fill:#fff;}.cls-7{stroke:#231f20;}.cls-8{letter-spacing:-0.03em;}.cls-10{fill:none;stroke:#ce624a;stroke-width:0.29px;}</style></defs><text class="cls-1" transform="translate(52.77 14.92)"><tspan class="cls-2">Б</tspan><tspan class="cls-3" x="7.03" y="0">А</tspan><tspan x="13.55" y="0">ТЫ</tspan><tspan class="cls-4" x="30.13" y="0">Р</tspan><tspan class="cls-5" x="36.78" y="0">А</tspan><tspan x="44.42" y="0">ЛЫ СЫДЫ</tspan><tspan class="cls-6" x="99.71" y="0">К</tspan><tspan x="106.04" y="0">ОВ </tspan><tspan class="cls-3" x="125.13" y="0">А</tspan><tspan x="131.66" y="0">ТЫНДАГЫ</tspan><tspan class="cls-7"><tspan x="-29.29" y="13.3">КЫРГЫЗ-ӨЗБЕК </tspan><tspan class="cls-8" x="60.07" y="13.3">Э</tspan><tspan x="67.67" y="13.3">Л А</tspan><tspan class="cls-4" x="85.41" y="13.3">Р</tspan><tspan class="cls-5" x="92.06" y="13.3">А</tspan><tspan x="99.7" y="13.3">ЛЫК УНИВЕ</tspan><tspan class="cls-6" x="164.11" y="13.3">Р</tspan><tspan x="171.37" y="13.3">СИТЕТИ</tspan></tspan></text><path class="cls-9" d="M296.19,35.11a1.1,1.1,0,0,1,.14.18c0,.18-.15.24-.26.31a3.07,3.07,0,0,1-1.14.38c-.35.06-.7.1-1.05.14l-.07.07c.09.11.18.23.28.34a5.2,5.2,0,0,1,1.44,2.77,4.11,4.11,0,0,1-.29,2.4,4.68,4.68,0,0,1-2.31,2.43,4.28,4.28,0,0,1-2.45.34,3.55,3.55,0,0,1-1.41-.53,3.75,3.75,0,0,1-1.33-1.64,4,4,0,0,1-.3-2.25,2.76,2.76,0,0,1,1.24-2.13,2.7,2.7,0,0,1,1.53-.46,2,2,0,0,1,2,1.86,1.28,1.28,0,0,1-.25,1,.56.56,0,0,1-.14.1,1.61,1.61,0,0,1-.07-.25,1.09,1.09,0,0,0-.76-.94,1.13,1.13,0,0,0-1.18.25,1.46,1.46,0,0,0-.37,1.51,3.22,3.22,0,0,0,.44.74,1.32,1.32,0,0,0,1,.45,2.07,2.07,0,0,0,2.35-1.88,3.84,3.84,0,0,0-.14-1.9,3.22,3.22,0,0,0-2.37-2.2,9,9,0,0,0-1-.17,2.86,2.86,0,0,0-.58.06,4.73,4.73,0,0,0-2.09.74,4.17,4.17,0,0,0-1.17,1.27,4.86,4.86,0,0,0-.61,2.1,3.66,3.66,0,0,0,.34,1.78,4.57,4.57,0,0,0,1.6,1.94,15,15,0,0,1,2.21,1.86A4.9,4.9,0,0,1,290.59,48a3.18,3.18,0,0,1,.06.43,5.88,5.88,0,0,1,0,1.39,4.37,4.37,0,0,1-1,2.2,4.32,4.32,0,0,1-.89.76,3.93,3.93,0,0,1-1.43.6,2.57,2.57,0,0,1-.4.05h-1.27a3,3,0,0,1-2.65-1.6,3.8,3.8,0,0,1-.47-1.79,3.3,3.3,0,0,1,.22-1.15,2.74,2.74,0,0,1,1.57-1.71,2.5,2.5,0,0,1,.86-.23,2.29,2.29,0,0,1,1.22.31,1.59,1.59,0,0,1,.67.8,1.33,1.33,0,0,1-.34,1.48.4.4,0,0,1-.35.15c-.11-.09-.05-.19,0-.29a.92.92,0,0,0-.43-1,.85.85,0,0,0-.83,0,1.52,1.52,0,0,0-.91,1.18,1.13,1.13,0,0,0,.1.54A2,2,0,0,0,286,51.27a2.12,2.12,0,0,0,2-.88,2.14,2.14,0,0,0,.45-1.07,3.32,3.32,0,0,0-.51-2.15,7.44,7.44,0,0,0-1.55-1.93c-.48-.42-1-.79-1.53-1.16a5.67,5.67,0,0,1-1.49-1.44,4.36,4.36,0,0,1-.7-3,4.49,4.49,0,0,1,.82-2.22,6.59,6.59,0,0,1,2-1.81c.11-.06.23-.1.34-.15s.15-.07.26-.27a3.09,3.09,0,0,1-1.12-.59,5.53,5.53,0,0,1-1.9-2.25,4.58,4.58,0,0,1,1.67-5.75c.48-.36,1-.69,1.46-1.06a6.39,6.39,0,0,0,1.51-1.72,4.54,4.54,0,0,0,.7-1.41,2.53,2.53,0,0,0-.31-2.11,2.23,2.23,0,0,0-3.42-.33,2.21,2.21,0,0,0-.39.66,1.17,1.17,0,0,0,.24,1.17,1.23,1.23,0,0,0,.82.51.89.89,0,0,0,1.05-1c0-.12,0-.23-.05-.35a.42.42,0,0,1,.43.13,1.19,1.19,0,0,1,.38.63,1.43,1.43,0,0,1-.19,1.1,1.8,1.8,0,0,1-1.49.83,2.79,2.79,0,0,1-2.8-2.23,3.5,3.5,0,0,1,.61-3,3.21,3.21,0,0,1,1.91-1.21,2.64,2.64,0,0,1,.49,0h1.12a2.36,2.36,0,0,1,.88.14,4.32,4.32,0,0,1,2.74,2.49,6.43,6.43,0,0,1,.29,1.3,4.33,4.33,0,0,1,0,1.08,3.92,3.92,0,0,1-.53,1.64,5.77,5.77,0,0,1-1.19,1.46A22.85,22.85,0,0,1,287,26.84a4.47,4.47,0,0,0-1.69,2.42,4.09,4.09,0,0,0,.22,2.8,3.9,3.9,0,0,0,2.7,2.37,4.8,4.8,0,0,0,2.55,0,3.17,3.17,0,0,0,1.65-1.11,3.08,3.08,0,0,0,.64-1.26,3.59,3.59,0,0,0,.12-.73,4,4,0,0,0-.08-1.29,2.24,2.24,0,0,0-.84-1.24,1.63,1.63,0,0,0-.92-.32c-.22,0-.44,0-.65,0a1.57,1.57,0,0,0-1.3,1.16,1.51,1.51,0,0,0,.25,1.38,1.12,1.12,0,0,0,1.21.42,1.14,1.14,0,0,0,.84-.91c0-.1,0-.2.06-.31a.52.52,0,0,1,.3.34,2,2,0,0,1-1.93,2.58,2.62,2.62,0,0,1-2.46-1.65,4,4,0,0,1-.25-2.25,4.09,4.09,0,0,1,.76-1.75,3.29,3.29,0,0,1,2-1.3,3.8,3.8,0,0,1,1.54-.06,4.43,4.43,0,0,1,3.38,2.51,4.22,4.22,0,0,1,.1,3.75A5.2,5.2,0,0,1,294,34.21c-.06.07-.11.15-.2.27A5.58,5.58,0,0,1,296.19,35.11Z" transform="translate(-3.52 -16.43)"/><path class="cls-10" d="M291.8,40.38a1.61,1.61,0,0,1-.07-.25,1.09,1.09,0,0,0-.76-.94,1.13,1.13,0,0,0-1.18.25,1.46,1.46,0,0,0-.37,1.51,3.22,3.22,0,0,0,.44.74,1.32,1.32,0,0,0,1,.45,2.07,2.07,0,0,0,2.35-1.88,3.84,3.84,0,0,0-.14-1.9,3.22,3.22,0,0,0-2.37-2.2,9,9,0,0,0-1-.17,2.86,2.86,0,0,0-.58.06,4.73,4.73,0,0,0-2.09.74,4.17,4.17,0,0,0-1.17,1.27,4.86,4.86,0,0,0-.61,2.1,3.66,3.66,0,0,0,.34,1.78,4.57,4.57,0,0,0,1.6,1.94,15,15,0,0,1,2.21,1.86A4.9,4.9,0,0,1,290.59,48a3.18,3.18,0,0,1,.06.43,5.88,5.88,0,0,1,0,1.39,4.37,4.37,0,0,1-1,2.2,4.32,4.32,0,0,1-.89.76,3.93,3.93,0,0,1-1.43.6,2.57,2.57,0,0,1-.4.05h-1.27a3,3,0,0,1-2.65-1.6,3.8,3.8,0,0,1-.47-1.79,3.3,3.3,0,0,1,.22-1.15,2.74,2.74,0,0,1,1.57-1.71,2.5,2.5,0,0,1,.86-.23,2.29,2.29,0,0,1,1.22.31,1.59,1.59,0,0,1,.67.8,1.33,1.33,0,0,1-.34,1.48.4.4,0,0,1-.35.15c-.11-.09-.05-.19,0-.29a.92.92,0,0,0-.43-1,.85.85,0,0,0-.83,0,1.52,1.52,0,0,0-.91,1.18,1.13,1.13,0,0,0,.1.54A2,2,0,0,0,286,51.27a2.12,2.12,0,0,0,2-.88,2.14,2.14,0,0,0,.45-1.07,3.32,3.32,0,0,0-.51-2.15,7.44,7.44,0,0,0-1.55-1.93c-.48-.42-1-.79-1.53-1.16a5.67,5.67,0,0,1-1.49-1.44,4.36,4.36,0,0,1-.7-3,4.49,4.49,0,0,1,.82-2.22,6.59,6.59,0,0,1,2-1.81c.11-.06.23-.1.34-.15s.15-.07.26-.27a3.09,3.09,0,0,1-1.12-.59,5.53,5.53,0,0,1-1.9-2.25,4.58,4.58,0,0,1,1.67-5.75c.48-.36,1-.69,1.46-1.06a6.39,6.39,0,0,0,1.51-1.72,4.54,4.54,0,0,0,.7-1.41,2.53,2.53,0,0,0-.31-2.11,2.23,2.23,0,0,0-3.42-.33,2.21,2.21,0,0,0-.39.66,1.17,1.17,0,0,0,.24,1.17,1.23,1.23,0,0,0,.82.51.89.89,0,0,0,1.05-1c0-.12,0-.23-.05-.35a.42.42,0,0,1,.43.13,1.19,1.19,0,0,1,.38.63,1.43,1.43,0,0,1-.19,1.1,1.8,1.8,0,0,1-1.49.83,2.79,2.79,0,0,1-2.8-2.23,3.5,3.5,0,0,1,.61-3,3.21,3.21,0,0,1,1.91-1.21,2.64,2.64,0,0,1,.49,0h1.12a2.36,2.36,0,0,1,.88.14,4.32,4.32,0,0,1,2.74,2.49,6.43,6.43,0,0,1,.29,1.3,4.33,4.33,0,0,1,0,1.08,3.92,3.92,0,0,1-.53,1.64,5.77,5.77,0,0,1-1.19,1.46A22.85,22.85,0,0,1,287,26.84a4.47,4.47,0,0,0-1.69,2.42,4.09,4.09,0,0,0,.22,2.8,3.9,3.9,0,0,0,2.7,2.37,4.8,4.8,0,0,0,2.55,0,3.17,3.17,0,0,0,1.65-1.11,3.08,3.08,0,0,0,.64-1.26,3.59,3.59,0,0,0,.12-.73,4,4,0,0,0-.08-1.29,2.24,2.24,0,0,0-.84-1.24,1.63,1.63,0,0,0-.92-.32c-.22,0-.44,0-.65,0a1.57,1.57,0,0,0-1.3,1.16,1.51,1.51,0,0,0,.25,1.38,1.12,1.12,0,0,0,1.21.42,1.14,1.14,0,0,0,.84-.91c0-.1,0-.2.06-.31a.52.52,0,0,1,.3.34,2,2,0,0,1-1.93,2.58,2.62,2.62,0,0,1-2.46-1.65,4,4,0,0,1-.25-2.25,4.09,4.09,0,0,1,.76-1.75,3.29,3.29,0,0,1,2-1.3,3.8,3.8,0,0,1,1.54-.06,4.43,4.43,0,0,1,3.38,2.51,4.22,4.22,0,0,1,.1,3.75A5.2,5.2,0,0,1,294,34.21c-.06.07-.11.15-.2.27a5.58,5.58,0,0,1,2.39.63,1.1,1.1,0,0,1,.14.18c0,.18-.15.24-.26.31a3.07,3.07,0,0,1-1.14.38c-.35.06-.7.1-1.05.14l-.07.07c.09.11.18.23.28.34a5.2,5.2,0,0,1,1.44,2.77,4.11,4.11,0,0,1-.29,2.4,4.68,4.68,0,0,1-2.31,2.43,4.28,4.28,0,0,1-2.45.34,3.55,3.55,0,0,1-1.41-.53,3.75,3.75,0,0,1-1.33-1.64,4,4,0,0,1-.3-2.25,2.76,2.76,0,0,1,1.24-2.13,2.7,2.7,0,0,1,1.53-.46,2,2,0,0,1,2,1.86,1.28,1.28,0,0,1-.25,1A.56.56,0,0,1,291.8,40.38Z" transform="translate(-3.52 -16.43)"/><path class="cls-9" d="M17.24,18.93a3.3,3.3,0,0,1,.17,1,3.82,3.82,0,0,1-.2,1.12A2.79,2.79,0,0,1,15.6,22.8a2.24,2.24,0,0,1-1.86,0,1.54,1.54,0,0,1-.89-1.6,1.16,1.16,0,0,1,.43-.76,2.43,2.43,0,0,1,.35-.16c0,.18,0,.29-.05.39a.89.89,0,0,0,.45.95.9.9,0,0,0,1,0,1.54,1.54,0,0,0,.75-1.09,1.27,1.27,0,0,0-.12-.66A1.93,1.93,0,0,0,14,18.69a2.19,2.19,0,0,0-2.45,1.7,2.81,2.81,0,0,0,.3,2.13,8.5,8.5,0,0,0,1.23,1.75,9.4,9.4,0,0,0,1.56,1.32c.37.28.75.54,1.12.84a4,4,0,0,1,1.49,2.64A4.63,4.63,0,0,1,16.11,33a7,7,0,0,1-1.43,1.23,4.25,4.25,0,0,1-.52.27.42.42,0,0,0-.28.3,3.25,3.25,0,0,1,1.06.55,6.4,6.4,0,0,1,1.61,1.63,4.6,4.6,0,0,1,.7,1.9,4.52,4.52,0,0,1-.37,2.64,3.53,3.53,0,0,1-1.07,1.35c-.4.33-.82.63-1.24.93a8.17,8.17,0,0,0-2.41,2.52,5.14,5.14,0,0,0-.55,1.1,2.93,2.93,0,0,0-.08,1.47,2.27,2.27,0,0,0,2.17,1.79,2,2,0,0,0,2-1.09,1.38,1.38,0,0,0-1.17-2,.9.9,0,0,0-.91,1c0,.13,0,.26.06.45a1,1,0,0,1-.25-.07,1.21,1.21,0,0,1-.54-.9,1.61,1.61,0,0,1,1.3-1.65A2.71,2.71,0,0,1,17,47.82a3.59,3.59,0,0,1-.5,3.94,2.88,2.88,0,0,1-2.2,1,7.66,7.66,0,0,0-.83,0,3.49,3.49,0,0,1-1.85-.44,4,4,0,0,1-2.22-2.87,4.82,4.82,0,0,1,1.76-4.84c.63-.54,1.29-1.06,1.95-1.57a4.57,4.57,0,0,0,1.4-1.91,3.33,3.33,0,0,0,.29-1.39,5.8,5.8,0,0,0-.25-1.43,4,4,0,0,0-2.72-2.75,4.44,4.44,0,0,0-2.88,0,3.44,3.44,0,0,0-2,2,3.56,3.56,0,0,0-.22,1.93,2.07,2.07,0,0,0,1.55,2,1.68,1.68,0,0,0,2.09-.66,1.55,1.55,0,0,0,0-1.78,1.19,1.19,0,0,0-2.19.43c0,.08,0,.16,0,.28a.8.8,0,0,1-.28-.4,1.9,1.9,0,0,1,.82-2.14,2.12,2.12,0,0,1,2-.15,2.66,2.66,0,0,1,1.75,2.33,4,4,0,0,1-.94,3.32,3.32,3.32,0,0,1-2,1.11,4.14,4.14,0,0,1-1.57,0,3.87,3.87,0,0,1-1.55-.69,4.5,4.5,0,0,1-1.4-6,5.27,5.27,0,0,1,1-1.34c.08-.08.14-.17.26-.31-.44-.06-.79-.1-1.13-.16A3.58,3.58,0,0,1,4,35l-.18-.11c-.16-.13-.16-.25,0-.38A3,3,0,0,1,5,34c.34-.07.68-.09,1-.14a.62.62,0,0,0,.18-.07l-.28-.34A5.18,5.18,0,0,1,4.53,31a4.16,4.16,0,0,1,.34-3A4.72,4.72,0,0,1,7,25.89a4,4,0,0,1,2.41-.36,3.26,3.26,0,0,1,1.95.93,3.89,3.89,0,0,1,1,1.73,4,4,0,0,1-.07,2.47,2.55,2.55,0,0,1-1.85,1.72,2,2,0,0,1-2-.37,1.74,1.74,0,0,1-.68-1.75c0-.23,0-.46.31-.61a1.89,1.89,0,0,1,0,.23,1.25,1.25,0,0,0,1.14,1A1.4,1.4,0,0,0,10.55,30a1.75,1.75,0,0,0-1-2.16A1.47,1.47,0,0,0,9,27.79a2.17,2.17,0,0,0-1.57.55,2.66,2.66,0,0,0-.26.31,3.2,3.2,0,0,0-.47,1.77A3.64,3.64,0,0,0,8,33.21a3.3,3.3,0,0,0,1.68.73,4.64,4.64,0,0,0,2.84-.44,4,4,0,0,0,2.2-2.82,4.35,4.35,0,0,0,.13-.95,4.12,4.12,0,0,0-.13-1,4.61,4.61,0,0,0-1.81-2.66,23.92,23.92,0,0,1-1.93-1.56A4.65,4.65,0,0,1,9.42,22a5.15,5.15,0,0,1-.08-1.88,4.35,4.35,0,0,1,3.46-3.55h.27c.39,0,.77,0,1.16,0A3.06,3.06,0,0,1,17.24,18.93Z" transform="translate(-3.52 -16.43)"/><path class="cls-10" d="M6.25,35.47c-.44-.06-.79-.1-1.13-.16A3.58,3.58,0,0,1,4,35l-.18-.11c-.16-.13-.16-.25,0-.38A3,3,0,0,1,5,34c.34-.07.68-.09,1-.14a.62.62,0,0,0,.18-.07l-.28-.34A5.18,5.18,0,0,1,4.53,31a4.16,4.16,0,0,1,.34-3A4.72,4.72,0,0,1,7,25.89a4,4,0,0,1,2.41-.36,3.26,3.26,0,0,1,1.95.93,3.89,3.89,0,0,1,1,1.73,4,4,0,0,1-.07,2.47,2.55,2.55,0,0,1-1.85,1.72,2,2,0,0,1-2-.37,1.74,1.74,0,0,1-.68-1.75c0-.23,0-.46.31-.61a1.89,1.89,0,0,1,0,.23,1.25,1.25,0,0,0,1.14,1A1.4,1.4,0,0,0,10.55,30a1.75,1.75,0,0,0-1-2.16A1.47,1.47,0,0,0,9,27.79a2.17,2.17,0,0,0-1.57.55,2.66,2.66,0,0,0-.26.31,3.2,3.2,0,0,0-.47,1.77A3.64,3.64,0,0,0,8,33.21a3.3,3.3,0,0,0,1.68.73,4.64,4.64,0,0,0,2.84-.44,4,4,0,0,0,2.2-2.82,4.35,4.35,0,0,0,.13-.95,4.12,4.12,0,0,0-.13-1,4.61,4.61,0,0,0-1.81-2.66,23.92,23.92,0,0,1-1.93-1.56A4.65,4.65,0,0,1,9.42,22a5.15,5.15,0,0,1-.08-1.88,4.35,4.35,0,0,1,3.46-3.55h.27c.39,0,.77,0,1.16,0a3.06,3.06,0,0,1,3,2.35,3.3,3.3,0,0,1,.17,1,3.82,3.82,0,0,1-.2,1.12A2.79,2.79,0,0,1,15.6,22.8a2.24,2.24,0,0,1-1.86,0,1.54,1.54,0,0,1-.89-1.6,1.16,1.16,0,0,1,.43-.76,2.43,2.43,0,0,1,.35-.16c0,.18,0,.29-.05.39a.89.89,0,0,0,.45.95.9.9,0,0,0,1,0,1.54,1.54,0,0,0,.75-1.09,1.27,1.27,0,0,0-.12-.66A1.93,1.93,0,0,0,14,18.69a2.19,2.19,0,0,0-2.45,1.7,2.81,2.81,0,0,0,.3,2.13,8.5,8.5,0,0,0,1.23,1.75,9.4,9.4,0,0,0,1.56,1.32c.37.28.75.54,1.12.84a4,4,0,0,1,1.49,2.64A4.63,4.63,0,0,1,16.11,33a7,7,0,0,1-1.43,1.23,4.25,4.25,0,0,1-.52.27.42.42,0,0,0-.28.3,3.25,3.25,0,0,1,1.06.55,6.4,6.4,0,0,1,1.61,1.63,4.6,4.6,0,0,1,.7,1.9,4.52,4.52,0,0,1-.37,2.64,3.53,3.53,0,0,1-1.07,1.35c-.4.33-.82.63-1.24.93a8.17,8.17,0,0,0-2.41,2.52,5.14,5.14,0,0,0-.55,1.1,2.93,2.93,0,0,0-.08,1.47,2.27,2.27,0,0,0,2.17,1.79,2,2,0,0,0,2-1.09,1.38,1.38,0,0,0-1.17-2,.9.9,0,0,0-.91,1c0,.13,0,.26.06.45a1,1,0,0,1-.25-.07,1.21,1.21,0,0,1-.54-.9,1.61,1.61,0,0,1,1.3-1.65A2.71,2.71,0,0,1,17,47.82a3.59,3.59,0,0,1-.5,3.94,2.88,2.88,0,0,1-2.2,1,7.66,7.66,0,0,0-.83,0,3.49,3.49,0,0,1-1.85-.44,4,4,0,0,1-2.22-2.87,4.82,4.82,0,0,1,1.76-4.84c.63-.54,1.29-1.06,1.95-1.57a4.57,4.57,0,0,0,1.4-1.91,3.33,3.33,0,0,0,.29-1.39,5.8,5.8,0,0,0-.25-1.43,4,4,0,0,0-2.72-2.75,4.44,4.44,0,0,0-2.88,0,3.44,3.44,0,0,0-2,2,3.56,3.56,0,0,0-.22,1.93,2.07,2.07,0,0,0,1.55,2,1.68,1.68,0,0,0,2.09-.66,1.55,1.55,0,0,0,0-1.78,1.19,1.19,0,0,0-2.19.43c0,.08,0,.16,0,.28a.8.8,0,0,1-.28-.4,1.9,1.9,0,0,1,.82-2.14,2.12,2.12,0,0,1,2-.15,2.66,2.66,0,0,1,1.75,2.33,4,4,0,0,1-.94,3.32,3.32,3.32,0,0,1-2,1.11,4.14,4.14,0,0,1-1.57,0,3.87,3.87,0,0,1-1.55-.69,4.5,4.5,0,0,1-1.4-6,5.27,5.27,0,0,1,1-1.34C6.07,35.7,6.13,35.61,6.25,35.47Z" transform="translate(-3.52 -16.43)"/></svg>